<svg xmlns="http://www.w3.org/2000/svg" xmlns:xlink="http://www.w3.org/1999/xlink" width="188" height="202" version="1.2">
  <defs/>
  <defs>
    <clipPath id="cp1" clipPathUnits="userSpaceOnUse"/>
    <clipPath id="cp2" clipPathUnits="userSpaceOnUse"/>
    <clipPath id="cp3" clipPathUnits="userSpaceOnUse"/>
    <clipPath id="cp4" clipPathUnits="userSpaceOnUse">
      <path d="M94.14-50.12c69.68 0 126.01 56.33 126.01 126.01 0 69.69-56.33 126.02-126.01 126.02-69.69 0-126.01-56.33-126.01-126.02 0-69.68 56.32-126.01 126.01-126.01z"/>
    </clipPath>
    <clipPath id="cp5" clipPathUnits="userSpaceOnUse"/>
    <linearGradient id="P" gradientUnits="userSpaceOnUse"/>
    <linearGradient id="g3" x1="-205.3" x2="-205.3" y1="-249.4" y2="-286.2" href="#P">
      <stop stop-color="#e6e8e8"/>
      <stop offset="1" stop-color="#fefefe"/>
    </linearGradient>
    <linearGradient id="g4" x1="-188.1" x2="-186.1" y1="-312.6" y2="-295.4" href="#P">
      <stop offset=".2" stop-color="#fefefe"/>
      <stop offset="1" stop-color="#3a91ce" stop-opacity="0"/>
    </linearGradient>
    <linearGradient id="g5" x1="-195.5" x2="-204.3" y1="-207" y2="-237.5" href="#P">
      <stop offset=".2" stop-color="#fefefe"/>
      <stop offset="1" stop-color="#3a91ce" stop-opacity="0"/>
    </linearGradient>
    <radialGradient id="g1" cx="-192.6" cy="-267" r="46.1" href="#P">
      <stop offset=".1" stop-color="#fefefe" stop-opacity=".5"/>
      <stop offset=".2" stop-color="#fefefe" stop-opacity=".5"/>
      <stop offset="1" stop-color="#181818"/>
    </radialGradient>
    <radialGradient id="g2" cx="-193.6" cy="-271.9" r="34.1" href="#P">
      <stop stop-color="#33c3de"/>
      <stop offset="1" stop-color="#3a91ce" stop-opacity="0"/>
    </radialGradient>
  </defs>
  <style>
    tspan{white-space:pre}.b{fill:#d1d3d4}.c{fill:#b52828}.d{fill:#d13f3f}.e{fill:#f1f2f2}.f{fill:#ab7843}.g{fill:#d2a06b}.h{fill:#e8c5b7}.i{fill:#ebba85}.k{fill:#fff}.l{fill:#181926}.q{stroke-linejoin:round;stroke-width:1}.q,.r,.s{fill:none;stroke:#000;stroke-linecap:round}.r{stroke-linejoin:round;stroke-width:1.5}.s{stroke-width:1}.v{fill:#bcbec0}.w{fill:none;stroke:#000;stroke-linejoin:round;stroke-width:2.3}.x{fill:#473023}.y{fill:#c49661}.B{fill:#397eb3}.C{fill:#3d2b22}.D{fill:#5e4234}.E,.I,.J{fill:none;stroke:#000;stroke-width:2.3}.I,.J{stroke-width:2.6}.J{stroke-width:1.7}.K{fill:#4c9bd6}.O{fill:none;stroke:#000;stroke-width:1.1}.S{fill:#272c3d}.T{fill:#414c6b;stroke:#414c6b;stroke-linecap:round;stroke-linejoin:round;stroke-width:1.1}.U{fill:#edbb8e}.V{fill:#d6a980}.W{fill:#bf9772}.X{fill:#db3957}.Y{fill:#f24d6c}.Z{fill:#f27786}.a0{fill:#ff8795}.a1{fill:#f57e7d}.a2{fill:#d43351}.a3{fill:#d94152}.a4{fill:#f06777}.ae,.af,.ag,.ah{stroke-linejoin:round}.ae{stroke:#000;stroke-linecap:round;stroke-width:.8}.af,.ag,.ah{stroke-width:1.1}.af{fill:none;stroke:#000;stroke-linecap:round}.ag,.ah{fill:#d6a980;stroke:#d6a980}.ah{fill:none;stroke:#000;stroke-linecap:round;stroke-width:1.7}.al{fill:#3b3128;stroke:#3b3128;stroke-width:.7}.am{fill:#b38c5e}.an{fill:#cca06c}.ap{fill:#3b3128}.aq{fill:#e6b479}.ar{fill:#2e261f}.av{fill:none;stroke:#000;stroke-linecap:round;stroke-linejoin:round;stroke-width:1.2}.aE{font-size:14px;fill:#3dacab;font-weight:300;font-family:&quot;OpenSans-Light&quot;,&quot;Open Sans&quot;}.aF{font-size:18px;fill:#616161;font-weight:400;font-family:&quot;OpenSans&quot;,&quot;Open Sans&quot;}.aG{fill:#e95b63}.aH{fill:#3dacab}.aI{fill:#787878}.aN{font-size:14px;fill:#9c9c9c;font-weight:300;font-family:&quot;OpenSans-Light&quot;,&quot;Open Sans&quot;}
  </style>
  <g clip-path="url(#cp1)"/>
  <g clip-path="url(#cp2)"/>
  <g clip-path="url(#cp3)"/>
  <g clip-path="url(#cp4)">
    <path d="M170.2 16.7c1.8 1.8 3.3 4.9 4.4 6.6 1.7 3.5 2.7 8.2 3.2 12.7.2 1.6.3 3.1.4 4.6-.4.3-13.7 8.7-39.7 7h-.1l-9.3-8.2c19.1-1.6 41.1-22.7 41.1-22.7z" class="k"/>
    <path d="M178.2 40.1c.5 10.1-.8 18.9-.8 18.9s-10.4 2.4-17.8.6l-6.5-1-14.6-12c26 2.6 39.3-6.2 39.7-6.5z" class="b"/>
    <path d="M184.6 21.8s-4.9 6.6-6.7 13.6h-.1c-.5-4.5-1.5-9-3.2-12.8l.1-.1c4.1-2.5 9.9-.7 9.9-.7z" class="k"/>
    <path d="m138.4 46.8-9.3-7.5c19.1-1.6 41.1-22.4 41.1-22.4 1.8 1.7 3.3 3.8 4.4 7.3 1.7 3.5 2.7 7.5 3.2 12 .2 1.6.3 2.4.4 3.9.5 10.1-.8 18.9-.8 18.9s-10.4 2.4-17.8.6l-6.5-1-14.6-12" class="ah"/>
    <path d="M174.7 22.5c4.1-2.5 9.9-.7 9.9-.7s-4.9 6.6-6.7 13.6" class="ah"/>
    <path d="M169.6 47.4c-.4-.1-.8-.5-.7-.9 0-.2 2.4-16.9-6.1-23.8-.4-.2-.4-.8-.1-1.1.2-.4.8-.4 1.1-.1 9.3 7.4 6.9 24.5 6.8 25.2-.1.4-.5.7-.9.7h-.1z"/>
    <path d="M165.2 48.6c-.5 0-.8-.5-.7-.9 0-.2 2.2-15.3-5.1-22.5-.3-.3-.3-.9 0-1.2.3-.3.8-.3 1.2 0 7.9 7.8 5.6 23.3 5.5 23.9-.1.5-.4.8-.8.8q-.1 0-.1-.1z"/>
    <path d="M160.6 50.1c-.5-.1-.8-.5-.7-1 0-.1 2.8-14.6-4.2-21.2-.3-.4-.3-.9 0-1.2.3-.3.8-.4 1.1 0 7.7 7.3 4.9 22.1 4.7 22.7-.1.4-.4.7-.8.7h-.1z"/>
    <path d="M27.2 90.9c1.7 0 3.6 0 5.6.2-2 13.2-2.1 21.2 3.8 22.9 18.7 5.6 28.5-13.9 28.5-13.9.9 2.9 1.5 6.1 1.2 10.1-1 14.6-22 19.8-22 19.8s-13.6 4.5-20.5-4.3c-4.9-6.3-1.2-19.2 3.4-34.8zM30.6 308c-3.8-7.5-6.5-16.5-7-26.2-.4-9.6.7-21.1 2.8-33.5l.8.1c2.7-.2 5.1-1.3 7.3-2.4-1.4 29.8 2.3 63.7 22 79.6.8 1.6 1.3 3.1 1.7 4.5h-3.6v-.2c-4.1-.1-9-2.8-13.7-7.5-3.8-3.7-7.3-8.6-10.3-14.4z" class="am"/>
    <path d="m41.3 174.8.7.2s4.1 18.8 18.8 22.1c5.6 1.3 14.4-1.1 23.4-4.5l.1.2c-.1 2.6-1.4 5.4-3.1 8.2-8.5 2.6-16.7 4.3-21.3 3.4-10-1.8-17.9-14.1-17.9-14.1s-6.2 25.8-7.5 55.7c-2.2 1.1-4.6 2.2-7.3 2.4l-.8-.1c3.7-22.8 10.3-49 14.9-73.5z" style="fill:#2e261f;stroke:#2e261f;stroke-width:.7"/>
    <path d="M30.8 76.6c.9.6 2.4.2 4.2.3-.8 5-1.6 10-2.2 14.2-2-.2-3.9-.2-5.6-.2 1.2-5.2 2.5-9.6 3.6-14.3z" class="am"/>
    <path d="M58.8 86.4c2.3 5.4 4.8 9.2 6.3 13.6 0 0-9.8 19.6-28.5 14-5.9-1.8-5.8-10.6-3.8-23.8 8.3.8 18-1.3 26-3.8z" class="an"/>
    <path fill-rule="evenodd" d="M84.7 325.6s-9 4.4-26.5 4.5c-.4-1.4-.9-2.9-1.7-4.5-19.7-15.9-23.4-49.8-22-79.6 3.6-2 6.8-4.4 10.4-3.8 5.8.8 13.8 7.6 20.1 6.3 6.3-1.4 13.7-8.7 15.7-16.8 2.1-8-6.7-11.6-6.6-16.9 0-3.4 4.1-8.6 7.1-13.8 10.6-3.2 21.6-7.7 27.1-10.7 10-5.4 19.7 23.6 21.6 27.3 1.9 3.6 11.3 3.1 11.3 3.1-.4 11.5-.4 19.9.5 21.8h.1c4.8 3.7 8.2 8.3 10.5 13.1-11.5 7.3-44.2 31-52.6 66.8-3.7-.2-7.3-1-10.4-2.8-1.5 2.2-3.1 4.2-4.6 6zm-22.7-56s30 4.7 32.1 35.4l1.5.2c1.3-5.7.7-12.1-2.3-19.1-6.8-15.8-20.9-17.3-31.3-16.6z" class="an"/>
    <path d="M55 74c1 5.1 2.3 9 3.8 12.4-8 2.5-17.7 4.6-26 3.8.6-4.1 1.4-8.7 2.2-13.7 5 .2 12.8-1 20-2.5zM35.5 43.4c0-5.3 1.8-11.1 4.8-16.5l.5.4c-.4 18-3.4 35-5.8 49.2-1.8-.1-3.3-.4-4.2-.9 2.6-10.4 4.7-21.4 4.7-32.2z" class="am"/>
    <path d="M35 76.5c2.4-14.2 5.4-31.2 5.8-49.2l-.5-.4q.9-1.7 2-3.4h.1c9.7-7.8 20.1-13 31.3-15.6 0 2.1.5 4.7 1.9 6.5 4.8 6.3 22.9 5.3 28.4 14.2 2.5 4.1 4.9 11-.6 18.6-6.3 8.5-19.5 3.4-20.6 22.9-.9-7.3-.1-13.9-2.3-18.3-3.7-7.5-10.9-3.2-11.4 2.7-.4 3.5.1 9.4 2.7 15.5 0 0-7.9 2.1-16.8 4-7.2 1.5-15 2.7-20 2.5z" class="an"/>
    <path d="M49.4 171.5 42 175l-.7-.2c-4.9-16.6 3-45.2 3-45.2.4 21.8 2 34.3 5.1 41.9z" class="am"/>
    <path d="M59.9 204.4c4.6.9 12.8-.8 21.3-3.4-3 5.2-7.1 10.4-7.1 13.8-.1 5.3 8.7 8.9 6.6 16.9-2 8.1-9.4 15.4-15.7 16.8-6.3 1.3-14.3-5.5-20.1-6.3-3.6-.6-6.8 1.8-10.4 3.8 1.3-29.9 7.5-55.7 7.5-55.7s7.9 12.3 17.9 14.1z" class="ap"/>
    <path d="M65.1 184.5c7.6 2.5 20.8-.2 32.2-3q-.4 2.9-1.3 6.2c-3.8 1.7-7.8 3.4-11.8 4.9-9 3.4-17.8 5.8-23.4 4.5C46.1 193.8 42 175 42 175l7.4-3.5c3.4 8.1 8.4 10.7 15.7 13z" class="am"/>
    <path d="m73.8 3.5.1.6s-.3 1.7-.2 3.8c-11.2 2.6-21.6 7.8-31.3 15.6C46.7 16.9 52.9 11.2 59.9 8c5.1-2.4 9.7-3.8 13.9-4.5z" class="aq"/>
    <path d="M66.3 110c.3-4-.3-7.1-1.2-10-1.5-4.4-4-8.2-6.3-13.6 9.1-2.8 16-6.1 16-6.1 8.2 19.6 26.8 23 40.3 22.7-10.2 8.1-24.7 20.8-26.1 28.7-2.2 12.4-1.1 22.1 6.2 29.2 0 0 4.1 7.2 2.1 20.6-11.4 2.8-24.6 5.5-32.2 3-7.3-2.3-12.3-4.9-15.7-13-3.1-7.6-4.7-20.1-5.1-41.9 0 0 21-5 22-19.6z" class="an"/>
    <path d="M71.8 70c.7 3.8 1.8 7.2 3 10.3 0 0-6.9 3.3-16 6.1C57.3 83 56 79.1 55 74c8.9-1.9 16.8-4 16.8-4z" class="am"/>
    <path d="M86.6 82.4q1 1.7 2.4 3.5.9 1.2 1.9 2.3C80.5 83.9 74.8 76.8 71.8 70c-2.6-6.1-3.1-12-2.7-15.5.5-5.9 7.7-10.2 11.4-2.7 2.2 4.4 1.4 11 2.3 18.3.5 4 1.6 8.1 3.8 12.3z" class="ar"/>
    <path d="M73.8 3.5c11.5-2 19.3 1 23.4 2.8-8.2-.6-16.1-.1-23.5 1.6-.1-2.1.2-3.8.2-3.8z" class="k"/>
    <path d="M90.9 88.2c11.2 11.7 28.9 8.5 33.6 7.1l.4.3c-1 .7-4.9 3.5-9.8 7.4-13.5.3-32.1-3.1-40.3-22.7-1.2-3.1-2.3-6.5-3-10.3 3 6.8 8.7 13.9 19.1 18.2z" class="am"/>
    <path d="M97.2 6.3c.9.4 1.9 1.2 3 2.2 6.5 6 15.3 21.2 19.1 25.2 1.5 1.6 5.2 3.5 9.7 5.4 5.3 2.4 11.8 4.8 16.8 6.9h-.3c-4.9 1.1-7.7 3.9-9 6.3-.4.8-.7 1.6-.8 2.3-.2 1.9 1.4 5.3 3.4 6.7 0 0-2.3 14.4-15.4 22.2-8.6 5.1-26.7 6.7-37.1-1.1-2.2-4.2-3.3-8.3-3.8-12.3 1.1-19.5 14.3-14.4 20.6-22.9 5.5-7.6 3.1-14.5.6-18.6-5.5-8.9-23.6-7.9-28.4-14.2-1.4-1.8-1.9-4.4-1.9-6.5C81.1 6.2 89 5.7 97.2 6.3z" class="k"/>
    <path d="M89.3 319.6c3.1 1.8 6.7 2.6 10.4 2.8q-1.4 5.7-1.8 12c-6.1 1.3-12.9 2.2-20.4 2.2-1.1-1.8 2.7-5.6 7.2-11 1.5-1.8 3.1-3.8 4.6-6zM96 187.7c10.1-4.4 18.4-8.6 19.9-8.4 2.6.5 5.7 5.9 8.3 12.1 3 6.9 5.4 14.6 5.9 16.8 1.1 4.3 6 8.1 11.3 9.1q-.1 1.8-.2 3.4s-9.4.5-11.3-3.1c-1.9-3.7-11.6-32.7-21.6-27.3-5.5 3-16.5 7.5-27.1 10.7 1.7-2.8 3-5.6 3.1-8.2l-.1-.2c4-1.5 8-3.2 11.8-4.9z" class="am"/>
    <path d="M89 85.9q-1.4-1.8-2.4-3.5c10.3 7.8 28.4 6.2 37 1.1 13.1-7.8 15.3-22.2 15.3-22.2.7.5 1.1.7 1.8.6 1.8-.1 1-.9 2.7-.1 0 .1.5.2.6.4.6 1.3 4.7 2.4 6.4 2.4 1.7 0 4.9-4.2 4.9-4.2s-.1-.4-.1-.9c-.1-.7.2-1.5 1.4-2q.2-.1.4-.4c4.4 2.3 4.5 11.4 1.7 16.6-2.7 5.2-9.1 6.8-13.9 5.6-2.2 3-10.9 13.5-20.3 16-4.7 1.4-22.4 4.6-33.6-7.1q-1-1.1-1.9-2.3z" class="b"/>
    <path d="M115.1 103c8.8-.2 15.4-2 15.4-2 5.3 5.3 12.6 13.5 14.8 20.1 1.6 4.7-.6 37.3-2.4 67.5-1.1-1.8-2.2-3.5-2.9-5-3.5-6.5-7.2-21-16.8-27.3-8.2-2.2-20.4 2.3-28 4.6-7.3-7.1-8.4-16.8-6.2-29.2 1.4-7.9 15.9-20.6 26.1-28.7z" class="k"/>
    <path d="M118.3 176.6c2.4.3 5.1 6.8 8.1 14l-2.2.8c-2.6-6.2-5.7-11.6-8.3-12.1-1.5-.2-9.8 4-19.9 8.4q.9-3.3 1.3-6.2c9.9-2.5 18.5-5.2 21-4.9zM131.8 316.3c5.1 0 28.7 8.2 35.2 6.1 6.6-2.1 9.9-10.5 9.9-10.5 4.1 3.8 6.5 11.1 4.7 13.2-2.5 2.9-14.4 5.3-20.8 3.3-6.3-2.1-30.7-8.4-30.7-8.4s-12.1 9.8-32.2 14.4q.4-6.3 1.8-12c13.1.7 28.2-6.1 32.1-6.1z" class="b"/>
    <path d="M113.1 12.1c6.6 5.3 11.6 20.8 16 26.8l-.1.2c-4.5-1.9-8.2-3.8-9.7-5.4-3.8-4-12.6-19.2-19.1-25.2l.5-.3s5.8-1.3 12.4 3.9z" class="an"/>
    <path d="M139.1 209.8q1.4.3 2.6.3-.2 3.8-.3 7.2c-5.3-1-10.2-4.8-11.3-9.1-.5-2.2-2.9-9.9-5.9-16.8l2.2-.8c3.7 8.7 7.8 18.3 12.7 19.2zM130.5 101s-6.6 1.8-15.4 2c4.9-3.9 8.8-6.7 9.8-7.4.8.8 3 2.7 5.6 5.4z" class="b"/>
    <path d="M143.8 57.6c.2.5.3 1.1.3 1.9 0 .7 0 1.4.1 2.3-.5-.8-1.3 0-3.1.1-.7.1-1.3-.1-2-.6-2-1.4-3.6-4.8-3.4-6.7 2.8 1.9 5.6 2.8 8.1 3z" class="ar"/>
    <path d="M95.2 160.9c7.6-2.3 19.8-6.8 28-4.6 9.6 6.3 13.3 20.8 16.8 27.3.7 1.5 1.8 3.2 2.9 5 4.3 6.9 10.2 15.3 10.8 18.5 0 0-4.5 3.5-12 3q-1.2 0-2.6-.3c-4.9-.9-9-10.5-12.7-19.2-3-7.2-5.7-13.7-8.1-14-2.5-.3-11.1 2.4-21 4.9 2-13.4-2.1-20.6-2.1-20.6z" class="k"/>
    <path d="M144.7 55.8c0 .6-.1 1.2-.3 1.9q-.3-.1-.6-.1c-.5-1.4-1.4-1.9-1.4-2.4-.1-1.8 2.2-1.2 2.3.6z"/>
    <path d="M143.9 59.5c.1-.7.4-1.3.5-1.8 3.6.2 6.8-.9 9.2-2.1.3.6.7 1.3 1 2.1q.3.8.5 1.8c0 .5.1.9.1.9s-3.3 4.2-5 4.2c-1.7 0-5.6-1.1-6.2-2.4-.1-.2-.6-.3-.6-.4 0-.9.2-1.6.3-2.3h.2z" class="ar"/>
    <path d="M144.4 57.7c-.1.5-.2 1.1-.3 1.8 0-.8-.1-1.4-.3-1.9q.3 0 .6.1z"/>
    <path d="M145.5 46h.3c6.3-1.3 9.8 2.2 10.8 3.9 0 0-1.4-.4-3.5-.6-4.6-.5-12.5-.8-16.6 3 1.3-2.4 4.1-5.2 9-6.3z" style="fill:#5c4d3d"/>
    <path d="M154.6 52.2v.2c.2.5-.3 1.4-.3 2.8q-.3.2-.7.4c-.4-.7-.8-1.3-1-2-.4-1.6 1.3-2.7 1.9-1.6z"/>
    <path d="M135.7 54.6c.1-.7.4-1.5.8-2.3 4.1-3.8 12-3.5 16.6-3 2.1.2 3.5.6 3.5.6.5.9.8 2 .9 3.2-.2.1-.8.7-1.9 1.4l-1-2.3q-.1-.1-.1-.2c-.6-1.1-2.3 0-1.9 1.6.2.7.6 1.3 1 2-2.4 1.2-5.6 2.3-9.2 2.1.2-.7.3-1.3.3-1.9-.1-1.8-2.4-2.4-2.3-.6 0 .5.9 1 1.4 2.4-2.5-.2-5.3-1.1-8.1-3z" class="al"/>
    <path d="M154.3 55.5c0 .6.1 1.8.4 2.5h-.1c-.3-.7-.7-1.6-1-2.2.2-.2.5-.2.7-.3z" class="b"/>
    <path d="m155.6 55.1 1.1 2c.1 0 .2.2.3.2-.2.3-.3.6-.4.7-1.2.5-1.5 1.8-1.4 2.5-.2-.7-.3-.8-.6-.8h.1c-.3-1.7-.4-2.8-.4-3.5.5-.2.9-.9 1.3-1.1z" class="ar"/>
    <path d="m154.5 52 .1.2q-.1-.1-.1-.2zM154.3 55.2c0-1.4.5-2.3.3-2.8v-.2l1 2.3q-.6.3-1.3.7z" class="ap"/>
    <path d="M157.5 53.1c.1 1.6-.1 3.3-.5 4q-.2-.1-.3-.2l-1.1-2.4c1.1-.7 1.7-1.3 1.9-1.4z" class="ar"/>
    <path d="M142.9 188.6c1.8-30.2 4-62.8 2.4-67.5-2.2-6.6-9.5-14.8-14.8-20.1-2.6-2.7-4.8-4.6-5.6-5.4l-.4-.3c9.4-2.5 18.1-13 20.3-16 4.8 1.2 11.2-.4 13.9-5.6 2.8-5.2 2.7-14.3-1.7-16.6M42.4 23.5C46.7 16.9 52.9 11.2 59.9 8c5.1-2.4 9.7-3.8 13.9-4.5 11.5-2 19.3 1 23.4 2.8.9.4 1.9 1.2 3 2.2 6.5 6 15.3 21.2 19.1 25.2 1.5 1.6 5.2 3.5 9.7 5.4 5.3 2.4 11.8 4.8 16.8 6.9M141.8 242.5c.3.2 8.4 3.4 14.2 10.8 2.8 3.6 5 8.1 5.6 13.8.8 7.1-1.3 14.3-4.7 20.7-6.2 12-16.6 21.1-19.3 21.8 0 0 28.2-1 34.8 0 1.6.2 3.2 1.1 4.5 2.3 4.1 3.8 6.5 11.1 4.7 13.2-2.5 2.9-14.4 5.3-20.8 3.3-6.3-2.1-30.7-8.4-30.7-8.4s-12.1 10.4-32.2 14.9c-6.1 1.4-12.9 2.8-20.4 2.8H77s10.5 9.4 15.8 11.9c5.2 2.4 14.4 2.2 17.4 5.5 3.1 3.3 4.7 12.6 2.5 14.8-2.2 2.2-17.4 2.1-24.9-2.6-6.9-4.4-27.2-19.5-33-22.1-.6-.2-1-.9-.9-1.6l.7-13.5v-.2c-4.1-.1-9-2.8-13.7-7.5-3.8-3.7-7.3-8.6-10.3-14.4-3.8-7.5-6.5-16.5-7-26.2-.4-9.6.7-21.1 2.8-33.5 3.7-22.8 10.3-49 14.9-73.5q0 0 0 0c-4.9-16.6 3-45.2 3-45.2s-13.6 4.1-20.5-4.8c-4.9-6.2-1.2-19.4 3.4-35.6 1.2-4.3 2.5-8.9 3.6-13.6 2.6-10.4 4.7-21.4 4.7-32.2 0-5.3 1.8-11.1 4.8-16.5q.9-1.7 2-3.4" class="ah"/>
    <path d="M141.7 242.5c-.9-1.9-.9-10.3-.5-21.8q.1-1.6.2-3.4M91.1 88.3q-.1-.1-.2-.1C80.5 83.9 74.8 76.8 71.8 70c-2.6-6.1-3.1-12-2.7-15.5.5-5.9 7.7-10.2 11.4-2.7 2.2 4.4 1.4 11 2.3 18.3.5 4 1.6 8.1 3.8 12.3q1 1.7 2.4 3.5.9 1.2 1.9 2.3c11.2 11.7 28.9 8.5 33.6 7.1M62.3 19.8s2.3 5.1 0 10.8c-2.4 5.7-11.1 18.7-7.9 40.1q.3 1.7.6 3.3c1 5.1 2.3 9 3.8 12.4 2.3 5.4 4.8 9.2 6.3 13.6.9 2.9 1.5 6 1.2 10-1 14.6-22 19.6-22 19.6M100.7 8.2s5.8-1.3 12.4 3.9c6.6 5.3 11.6 20.8 16 26.8M144.2 61.8c-.5-.8-1.3 0-3.1.1-.7.1-1.3-.1-2-.6-2-1.4-3.6-4.8-3.4-6.7.1-.7.4-1.5.8-2.3 1.3-2.4 4.1-5.2 9-6.3h.3c6.3-1.3 9.8 2.2 10.8 3.9.5.9.8 2 .9 3.2" class="ah"/>
    <path d="M157.5 53.1c.1 1.6-.1 3.3-.5 4q-.2.3-.4.4c-1.2.5-1.5 1.3-1.4 2 0 .5.1.9.1.9s-3.2 4.2-4.9 4.2c-1.7 0-5.4-1.1-6-2.4l-.2-.4M144.1 59.5v.2M143.8 57.6c-.5-1.4-1.4-1.9-1.4-2.4-.1-1.8 2.2-1.2 2.3.6 0 .6-.1 1.2-.3 1.9-.1.5-.2 1.1-.3 1.8 0-.8-.1-1.4-.3-1.9zM144.1 59.5q0 0 0 0" class="ah"/>
    <path d="M144.3 59.8c-.1.6.1 1.1.1 2v.5" style="fill:none;stroke:#000;stroke-linecap:round;stroke-linejoin:round;stroke-width:1.4"/>
    <path d="M154.7 57.7c-.3-1-.4-1.8-.4-2.5 0-1.4.5-2.3.3-2.8v-.2" class="ah"/>
    <path d="M155.2 59.6v-.1q-.2-1-.6-1.8c-.3-.8-.7-1.5-1-2.1-.4-.7-.8-1.3-1-2-.4-1.6 1.3-2.7 1.9-1.6q0 .1.1.2M59.9 166.7s23.3-2.3 35.3-5.8c7.6-2.3 19.8-6.8 28-4.6 9.6 6.3 13.3 20.8 16.8 27.3.7 1.5 1.8 3.2 2.9 5 4.3 6.9 10.2 15.3 10.8 18.5.7 4-2.4 10-8.9 10.5q-1.7.1-3.4-.3c-5.3-1-10.2-4.8-11.3-9.1-.5-2.2-2.9-9.9-5.9-16.8-2.6-6.2-5.7-11.6-8.3-12.1-1.5-.2-9.8 4-19.9 8.4-3.8 1.7-7.8 3.4-11.8 4.9-9 3.4-17.8 5.8-23.4 4.5C46.1 193.8 42 175 42 175M56.5 270.8s3-.9 7.3-1.3c9-.7 23.7.8 30.4 16.6 3 7 3.2 13.4 1.8 19.1-1.2 5.4-3.9 10.3-6.7 14.4-1.5 2.2-3.1 4.2-4.6 6-4.5 5.4-8.3 9.2-7.2 11q.1.1.1.2M137.6 309.6l-5.8.3M40.9 322.4q0 0 0 0c-5.5.8-18.6 2.4-32.6 3.2-11.8.6-24.2.6-33.5-.9-6.9-1.1-13.6-2.8-20.1-5-10.6-3.8-20.4-9-28-15.4-3.2-2.7-6-5.7-8.4-8.8-2.6-3.6-2.1-6.4-.1-7.1 1.7-.6 4.4.1 7.4 3.1 2.4 2.4 5 4.7 8.4 6.9 7.3 4.5 16.3 8.4 24.9 11.2 7 2.3 14.8 3.8 20.9 4.3 12.3 1.1 23.3.6 32.1-.7 3.5-.5 6.7-1.1 9.5-1.9 3.8-1 6.9-2.1 9.2-3.3q.1 0 .1-.1" class="ah"/>
    <path d="M144.3 80c-.3-.3-.4-.8-.1-1.2 2.5-2.9 4.3-7.3 4.3-7.3.2-.4.7-.6 1.1-.5.4.2.6.7.4 1.1 0 .2-1.9 4.7-4.5 7.8-.2.2-.4.3-.7.3q-.2 0-.5-.2z"/>
    <path d="m15.1 38.5.1.1c-7 8.1-7.2 21-6.1 30.5-.7.3-3.3 1.3-5.5-1.3-.4-8.7.1-22.7 6.3-31.9 2.3.4 5.2 2.6 5.2 2.6z" class="k"/>
    <path d="M9.1 69.1c.4 3.3 1 6.2 1.4 8.4-1.5-.1-6.1-1.8-6.1-1.8s-.5-3.2-.8-7.9c2.2 2.6 4.8 1.6 5.5 1.3z" class="b"/>
    <path d="M18.7 35.3C34 46.5 55.5 52.2 69.1 54.7c2.9.5 5.4.9 7.5 1.2-.8 11-13.6 16.5-28.8 17.9-.4-3.5-.4-7.8.6-12.9 0 0-11.9-2.5-14.6-.6-1.8 1.2-3 6.8-2.5 13.5-8-.7-15.8-2.4-22-4.8l-.2.1c-1.1-9.5-.9-22.4 6.1-30.5q1.5-1.8 3.5-3.3z" class="k"/>
    <path d="M9 69.1c.1-.1 0-.1 0-.1 6.2 2.4 13.7 4.1 21.7 4.8.2 3.7.1 7.7 1.8 11.5v.1c-13.8 0-21.6-3.9-21.6-3.9s.2-1.5-.4-4c-.4-2.2-1.1-5.1-1.5-8.4z" class="b"/>
    <path d="M48.4 60.9c-1 5.1-1 9.4-.6 12.9-5.3.5-11 .5-16.5 0-.5-6.7.7-12.3 2.5-13.5 2.7-1.9 14.6.6 14.6.6z" class="v"/>
    <path d="M47.4 73.8c.8 5.9 2.9 9.3 2.9 9.3l-.1.2c-2.9.7-6.2 1.3-9.1 1.6-2.8.4-5.1.5-8.6.5v-.1c-1.7-3.8-1.6-7.8-1.8-11.5 5.5.5 11.4.5 16.7 0z" style="fill:#a7a9ac"/>
    <path d="M76.3 55.9c2.9.4 4.5.5 4.9.4.8 5.4-.2 12.4 1.6 19.6v.1c-1.8-.6-4.4-.3-7.9.4-6.9 1.5-15.3 4.8-24.4 6.9v-.2s-2-3.4-2.7-9.3c15.2-1.4 27.7-6.9 28.5-17.9z" class="b"/>
    <path d="M15.2 38.6q1.5-1.8 3.5-3.3C34 46.5 55.5 52.2 69.1 54.7c2.9.5 5.4.9 7.5 1.2 2.9.4 4.6.5 5.1.4.7 5.4-1.5 12.4 1.9 19.6v.1c-3.4-.6-4.8-.3-8.3.4-6.8 1.5-15.8 4.8-24.9 6.9-2.9.7-5.8 1.3-8.8 1.6q-4.1.5-7.9.5c-13.3 0-22.2-3.9-22.2-3.9s-.4-1.5-1-4c-.4-2.2-1-5.1-1.4-8.4-1.1-9.5-.9-22.4 6.1-30.5z" class="ah"/>
    <path d="M10.6 77.5h-.1c-1.5-.1-6.1-1.8-6.1-1.8s-.5-3.2-.8-7.9c-.4-8.7.1-22.7 6.3-31.9 2.3.4 5.2 2.6 5.2 2.6M33.8 85.3c-1.5-3.8-2.3-7.8-2.5-11.5-.5-6.7.7-12.3 2.5-13.5 2.7-1.9 14.6.6 14.6.6-1 5.1-1 9.4-.6 12.9.7 5.9 2.7 9.3 2.7 9.3" class="ah"/>
    <path d="M91.8 33.5c1.3.5 3.3-2.3 12.5-1.9.6 1 1.2 1.8 1.4 2q0 .1-.1.2c-4.5-.5-10.4.3-15.4 3.1-1.3-2.2-2-6.5.2-9.5-.9 4.9.4 5.7 1.4 6.1z" class="b"/>
    <path d="M89.7 27.4c1.7-1.4 3-2.5 5.4-3.1 3.4-.8 6.1.4 7.8 2.3 1.4 1.6 2.4 3.5 2.7 5h-1.4c-9.2-.4-11.5 2.4-12.8 1.9-1-.4-3.4-1.2-1.7-6.1z" class="k"/>
    <path d="M105.7 33.6c-.2-.2-.8-1-1.4-2h1.4c.1.8.1 1.5 0 2z" class="b"/>
    <path d="m114.4 26.8-.6.7s-6.1-.7-8.1 6.2c-.3-1.7-1.2-4.5-2.6-6 .2-1.2.8-3.3 2.1-4.4 2.3-1.8 6.6-.5 9.2 3.5z" class="k"/>
    <path d="m113.8 27.6.6-1.2c.2.4.5.9.7 1.4-6.1.4-9.3 6.3-9.3 6.3l-.1.5c.1-.5.1-.9 0-.9 2-6.9 8.1-6.1 8.1-6.1z" class="b"/>
    <path d="M103.1 26.6c.2-1.1.8-2.2 2.1-3.3 2.3-1.8 6.6-1 9.2 3q.4.5.7 1.2c-6.1.4-9.3 6.1-9.3 6.1h-.1" class="av"/>
    <path d="M95.5 24.3c3.4-.8 5.9.4 7.6 2.3 1.4 1.6 2.3 3.5 2.6 5 .1.8.1 1.5 0 2q0 .1-.1.2c-4.5-.5-10.4.3-15.4 3.1-1.3-2.2-2-6.5.2-9.5 1.1-1.4 2.7-2.5 5.1-3.1z" class="av"/>
    <path d="M93.5 33.2c0-1.3 1.2-2.5 2.5-2.5 1.4 0 2.5 1.2 2.5 2.5q0 .5-.1.9-2 .3-4 1c-.5-.5-.9-1.1-.9-1.9zM108.7 27.4c.9 0 1.7.6 2 1.4-1.3.7-2.4 1.7-3.2 2.5-.6-.4-1-1-1-1.8 0-1.2 1-2.1 2.2-2.1z"/>
    <path d="M147.1 187.7c0 6.8 11.2 19.8 16.1 17.2-.5 4.4-2.7 6.7-6.2 8.6-1.8 1.1-3.9 1.2-5.8 1 1.4-2.1 2-4.6 1.6-6.6-.5-2.9-5.6-12.5-9.8-19.2.3-4.1.4-6 .3-8.3-.5-9.6-5.5-17.9-5.3-22.6 6.7 9.7 9.1 23.2 9.1 29.9z" class="b"/>
    <path d="M160.2 159.8c1.6 7.3-1.1 15.1-.7 21.5.4 6.4 4.2 19.7 3.7 23.6-4.9 2.6-16.1-10.4-16.1-17.2 0-6.7-2.4-20.2-9.1-29.9.3-6 5.7-8.8 10-9 3.5-.1 10.5 3.4 12.2 11z" class="k"/>
    <path d="M163.2 204.9c-.5 4.4-2.7 6.7-6.2 8.6-1.8 1.1-3.9 1.2-5.8 1 1.4-2.1 2-4.6 1.6-6.6-.5-2.9-5.6-12.5-9.8-19.2.3-4.1.4-6 .3-8.3-.5-9.6-5.5-17.9-5.3-22.6.3-6 5.7-8.8 10-9 3.5-.1 10.5 3.4 12.2 11 1.6 7.3-1.1 15.1-.7 21.5.4 6.4 4.2 19.7 3.7 23.6z" class="ah"/>
    <path d="M16.9 70.8c-3.4-21 8-30.9 8.5-31.3.3-.3.8-.2 1.1.1.3.4.3.9-.1 1.2-.1.1-11.1 9.7-7.9 29.7.1.5-.2.9-.7 1h-.1c-.4 0-.8-.3-.8-.7z"/>
    <path d="M20 71.1c-1.7-17.9 8.7-28.8 9.1-29.3.4-.3.9-.3 1.2 0 .3.4.3.9 0 1.2-.1.1-10.3 10.8-8.7 28 .1.4-.3.8-.7.9h-.1c-.4 0-.8-.3-.8-.8z"/>
    <path d="M23.7 71.7C22.1 54 32.8 44 33.3 43.6c.3-.3.8-.3 1.2.1.3.3.2.8-.1 1.1-.1.1-10.6 9.9-9 26.8 0 .5-.3.9-.8.9h-.1c-.4 0-.7-.3-.8-.8zM66.8 79.2c-6.3-6.1-4.6-17.5-4.5-18 .1-.5.5-.8 1-.7.4.1.7.5.6.9 0 .1-1.6 11.1 4.1 16.6.3.4.3.9 0 1.2q-.3.3-.6.3t-.6-.3z"/>
    <path d="M63.5 80c-6.3-6.1-4.6-17.5-4.5-18 .1-.4.5-.8.9-.7.5.1.8.5.7 1 0 .1-1.6 11 4 16.6.4.3.4.8 0 1.1q-.2.3-.5.3-.4 0-.6-.3z"/>
    <path d="M60.2 80.9c-6.3-6.2-4.6-17.6-4.5-18.1 0-.4.5-.7.9-.7.5.1.8.5.7 1 0 .1-1.6 11 4 16.6.3.3.4.8 0 1.2q-.2.2-.6.2-.3 0-.5-.2zM175.8 321.5c.7.4 1.5 1 2.2 1.8.3.5.6.9.9 1.3q.2.4.3.7l.2.6q.2.6.3 1l.1.4-1.7.1v-1.2q0-.2-.1-.5l-.2-.6q-.2-.6-.5-1.3c-.5-.8-1.1-1.6-1.6-2.1-.5-.6-1-.9-1-.9s.5.2 1.1.7zM170.3 323.3c.6.5 1.4 1.1 2.1 1.9.3.4.7.9.9 1.3q.2.3.3.7.2.3.3.6.2.6.2 1 .1.3.1.4h-1.7v-.3q.1-.3 0-.8 0-.2-.1-.5 0-.3-.1-.6-.2-.7-.6-1.3c-.4-.9-1.1-1.6-1.6-2.2-.5-.5-.9-.8-.9-.8s.4.2 1.1.6zM108.4 364.2c.6.5 1.3 1.3 1.8 2.2.2.5.5.9.6 1.4q.2.4.2.7.1.4.1.7.1.6.1 1v.4l-1.6-.2v-.3q.1-.3.1-.8.1-.3.1-.6t-.1-.6q-.1-.7-.3-1.4c-.3-.9-.8-1.8-1.2-2.4-.4-.6-.7-1-.7-1s.4.3.9.9zM102.6 365c.6.5 1.3 1.3 1.8 2.2.2.5.5 1 .6 1.5q.1.3.2.7.1.3.1.6.1.7.1 1v.4l-1.6-.2v-.3q.1-.3.1-.8.1-.3.1-.6t-.1-.6q-.1-.6-.3-1.3c-.3-1-.8-1.8-1.2-2.4-.4-.7-.7-1-.7-1s.4.3.9.8zM144.7 210.4c.5.7 1 1.6 1.3 2.6l.3 1.5v1.4q-.1.7-.2 1v.4l-1.6-.6.1-.2q.2-.3.3-.8.1-.2.1-.5.1-.3.1-.6.1-.7 0-1.4c0-1-.3-1.9-.6-2.6-.3-.7-.5-1.2-.5-1.2s.3.4.7 1zM138.9 210c.4.6.9 1.5 1.2 2.6.2.5.3 1 .3 1.5q.1.4.1.7 0 .4-.1.7 0 .6-.1 1l-.1.4-1.5-.6.1-.3q.1-.3.3-.7 0-.3.1-.6t.1-.6q.1-.7 0-1.4c-.1-.9-.4-1.9-.6-2.6-.3-.7-.6-1.1-.6-1.1s.4.3.8 1zM156.5 207.3c.3.7.7 1.7.8 2.8.1.5.1 1 .1 1.5q0 .4-.1.8 0 .3-.1.6-.1.6-.3 1-.1.3-.1.4l-1.5-.9.2-.2q.2-.3.4-.7.1-.3.2-.5l.2-.6q.2-.7.2-1.4c.1-1-.1-1.9-.2-2.7-.2-.7-.4-1.2-.4-1.2s.3.4.6 1.1z"/>
  </g>
  <g clip-path="url(#cp5)">
    <use xlink:href="#reuse-0" style="fill:#4192d9"/>
    <use xlink:href="#reuse-0" style="opacity:.3;mix-blend-mode:multiply;fill:url(#g1)"/>
    <g style="opacity:.3;mix-blend-mode:multiply"/>
  </g>
  <text style="transform:matrix(-1,0,0,1,517.445,580.091)"><tspan x="0" y="0" class="aE">
</tspan></text>
  <text style="transform:matrix(-1,0,0,1,585.116,604)"><tspan x="0" y="0" class="aF"> </tspan></text>
  <text style="transform:matrix(-1,0,0,1,221.161,321)"><tspan x="-191.1" y="0" style="font-size:22px;fill:#8a8a8a;font-weight:400;font-family:&quot;OpenSans&quot;,&quot;Open Sans&quot;"></tspan>
    <tspan y="0" style="font-size:22px;fill:#575757;font-weight:400;font-family:&quot;OpenSans&quot;,&quot;Open Sans&quot;"> </tspan><tspan y="0" style="font-size:22px;fill:#ea656d;font-weight:400;font-family:&quot;OpenSans&quot;,&quot;Open Sans&quot;">
</tspan></text>
  <text style="transform:matrix(-1,0,0,1,-17.603,580.091)"><tspan x="0" y="0" class="aE">
</tspan></text>
  <text style="transform:matrix(-1,0,0,1,42.068,604)"><tspan x="0" y="0" class="aF">
</tspan></text>
  <text style="transform:matrix(-1,0,0,1,670,637)"><tspan x="92.2" y="10.6" class="aN"></tspan><tspan x="310" y="27.4" class="aN"></tspan></text>
</svg>
