<?xml version="1.0" standalone="no"?>
<!DOCTYPE svg PUBLIC "-//W3C//DTD SVG 20010904//EN"
 "http://www.w3.org/TR/2001/REC-SVG-20010904/DTD/svg10.dtd">
<svg version="1.0" xmlns="http://www.w3.org/2000/svg"
 width="808.000000pt" height="808.000000pt" viewBox="0 0 808.000000 808.000000"
 preserveAspectRatio="xMidYMid meet">
<metadata>
Created by potrace 1.14, written by Peter Selinger 2001-2017
</metadata>
<g transform="translate(0.000000,808.000000) scale(0.100000,-0.100000)"
fill="#000000" stroke="none">
<path d="M3578 8005 c-2 -2 -58 -7 -124 -9 -65 -3 -130 -8 -144 -11 -14 -3
-43 -7 -65 -10 -94 -9 -304 -68 -455 -128 -57 -22 -225 -106 -294 -146 -137
-79 -334 -257 -446 -401 -19 -25 -38 -46 -42 -48 -4 -2 -8 -10 -8 -18 0 -8 -4
-14 -10 -14 -5 0 -10 -4 -10 -10 0 -5 -9 -20 -20 -32 -32 -37 -89 -136 -140
-243 -63 -134 -75 -165 -105 -270 -31 -108 -43 -177 -46 -267 -1 -28 -6 -48
-13 -48 -11 0 -195 91 -301 149 -68 37 -92 52 -223 139 -51 34 -100 62 -108
62 -14 0 -63 -39 -110 -87 -22 -24 -49 -30 -58 -14 -9 14 -130 70 -165 76 -29
5 -33 2 -64 -47 -67 -106 -129 -256 -163 -393 -4 -16 -8 -34 -10 -40 -26 -107
-47 -247 -60 -405 -7 -84 -7 -395 0 -480 13 -151 15 -166 20 -210 10 -73 12
-75 89 -100 39 -14 75 -25 80 -26 4 -1 9 -3 12 -4 3 -1 10 -4 15 -5 6 -1 12
-4 15 -5 7 -4 23 -7 38 -9 8 0 14 -7 15 -13 1 -7 6 -33 12 -58 6 -25 12 -51
13 -59 2 -8 12 -20 23 -28 37 -27 288 -99 414 -119 19 -3 42 -7 50 -9 8 -2 40
-7 70 -10 89 -9 95 -11 98 -28 2 -9 -2 -33 -8 -54 -6 -21 -20 -72 -31 -113
-11 -41 -22 -82 -25 -90 -3 -8 -6 -17 -6 -20 0 -3 -4 -15 -9 -28 -5 -12 -11
-33 -13 -45 -2 -12 -11 -47 -20 -78 -9 -31 -18 -65 -21 -75 -2 -11 -8 -34 -14
-51 -5 -18 -7 -33 -4 -33 3 0 0 -6 -6 -13 -6 -8 -8 -17 -4 -20 3 -4 0 -13 -7
-22 -7 -8 -10 -15 -7 -15 3 0 -1 -24 -9 -52 -7 -29 -16 -71 -20 -93 -3 -22 -7
-42 -9 -45 -2 -3 -6 -26 -10 -50 -3 -25 -8 -56 -10 -70 -19 -124 -25 -268 -14
-340 16 -97 21 -117 51 -179 43 -90 140 -185 238 -233 41 -20 82 -38 90 -41
156 -48 279 -53 481 -23 24 3 27 1 24 -23 -2 -14 -6 -36 -9 -49 -3 -12 -8 -32
-11 -45 -7 -33 -25 -119 -30 -145 -2 -13 -6 -31 -9 -40 -3 -9 -7 -33 -10 -52
-3 -19 -8 -46 -11 -60 -2 -14 -11 -68 -20 -120 -15 -87 -21 -131 -30 -215 -1
-16 -6 -52 -9 -80 -25 -208 -26 -593 -1 -725 2 -14 7 -41 9 -60 3 -19 8 -44
11 -55 2 -11 9 -37 14 -59 5 -21 8 -44 6 -50 -3 -6 -6 -22 -9 -36 -2 -14 -16
-85 -31 -159 -14 -74 -28 -146 -31 -160 -2 -14 -10 -55 -18 -91 -9 -36 -15
-70 -16 -76 0 -13 169 -94 358 -171 164 -67 474 -171 592 -199 8 -2 59 -14
113 -28 53 -14 110 -27 125 -30 26 -4 110 -21 162 -31 38 -8 68 -13 155 -25
44 -6 91 -13 105 -16 14 -2 59 -6 100 -10 41 -3 81 -7 87 -9 73 -24 758 -24
938 0 17 2 55 7 86 10 31 3 65 7 75 9 11 2 46 7 79 11 32 4 68 9 80 11 11 2
34 7 50 9 63 11 191 35 210 40 11 3 58 14 105 25 106 24 181 44 243 63 26 8
47 13 47 11 0 -3 14 2 30 11 17 9 30 13 30 9 0 -4 7 0 17 7 9 8 19 13 22 12 8
-3 149 42 210 66 108 43 208 84 231 94 14 6 27 11 30 12 3 0 20 9 38 18 17 10
32 14 32 11 0 -4 8 -1 18 7 9 8 38 25 65 37 117 55 142 68 149 77 4 5 8 6 8 1
0 -5 9 -1 20 9 11 10 20 15 20 11 0 -4 17 5 37 19 21 14 43 25 50 25 7 0 13 3
13 8 0 4 10 12 23 18 50 24 122 68 125 76 2 4 9 8 16 8 10 0 13 31 12 123 0
125 5 188 30 372 4 28 8 74 8 102 1 29 3 53 6 53 9 0 -4 241 -15 272 -2 7 -6
24 -9 38 -7 42 -46 137 -66 163 -11 14 -20 29 -20 34 0 12 -99 114 -141 145
-46 34 -116 72 -160 87 -50 16 -139 30 -144 22 -2 -4 -16 -6 -32 -5 -25 1 -28
4 -27 35 1 19 5 120 10 224 10 244 11 693 1 767 -4 32 -15 75 -24 95 -9 21
-17 40 -18 43 0 3 -7 16 -15 30 -8 14 -14 27 -15 30 -2 22 -151 247 -214 323
-99 119 -150 177 -216 246 -90 94 -233 238 -276 275 -24 22 -29 31 -18 34 72
22 250 127 339 199 90 72 187 163 255 238 44 48 88 96 97 106 9 10 24 28 32
41 15 23 20 24 114 21 64 -2 120 3 158 13 66 16 139 48 149 64 3 6 11 8 16 5
5 -4 9 -1 9 4 0 6 5 11 10 11 6 0 33 23 61 52 58 60 111 163 135 263 15 65 27
285 14 285 -3 0 -5 10 -5 23 -1 12 -4 32 -9 45 -7 22 -7 22 61 15 115 -11 360
-4 423 12 8 2 35 7 60 10 64 8 139 26 144 34 6 10 23 153 30 252 2 25 6 51 10
58 4 6 3 11 -2 11 -5 0 -6 19 -3 43 9 55 6 402 -4 492 -10 92 -8 121 10 156 9
16 14 29 11 29 -5 0 59 153 87 205 42 79 91 160 99 163 4 2 8 8 8 14 0 5 11
24 24 41 13 18 23 40 23 49 -1 32 -104 56 -232 52 -86 -3 -103 -5 -122 -17 -7
-5 -13 -6 -13 -3 0 3 -16 -3 -34 -14 -34 -18 -35 -18 -41 -1 -17 56 -139 211
-165 211 -6 0 -43 -28 -83 -63 -143 -124 -181 -152 -199 -149 -11 2 -18 -3
-18 -12 0 -21 -75 -83 -109 -89 -17 -4 -31 -14 -34 -26 -5 -22 -92 -81 -120
-81 -11 0 -21 -8 -24 -18 -4 -17 -129 -103 -223 -153 -25 -13 -47 -27 -50 -30
-3 -4 -75 -41 -160 -82 -128 -62 -314 -135 -392 -153 -10 -2 -28 -6 -40 -9
-13 -3 -54 -12 -92 -19 -64 -13 -69 -12 -85 6 -27 32 -75 122 -227 428 -81
162 -149 297 -153 300 -3 3 -12 15 -18 28 -7 12 -19 32 -25 45 -7 12 -15 24
-18 27 -3 3 -18 24 -33 48 -37 57 -63 88 -118 142 -44 44 -160 130 -176 132
-4 0 -25 9 -45 19 -21 10 -45 21 -55 23 -10 1 -25 6 -33 9 -64 23 -180 35
-245 24 -18 -3 -70 25 -86 45 -7 11 -164 78 -181 78 -8 0 -18 4 -24 8 -9 9
-81 31 -119 38 -11 2 -42 8 -70 14 -64 14 -95 18 -173 25 -35 3 -67 7 -71 10
-5 2 -10 2 -13 0z"/>
</g>
</svg>
